# xmcd
#
# Track frame offsets: 
#        150
#        11518
#        16818
#        30401
#        42961
#        58869
#        72772
#        84018
#        101142
#        111985
#        124070
#        133997
#        148600
#
# Disc length: 2092 seconds
#
# Revision: 0
# Processed by: cddbd v1.5.1PL0 Copyright (c) Steve Scherf et al.
# Submitted via: ExactAudioCopy v0.95b2
#
DISCID=ab082a0d
DTITLE=Green Pitch - Ace of Hearts
DYEAR=2005
DGENRE=Acoustic
TTITLE0=In Amsterdam
TTITLE1=Slow Down
TTITLE2=Reverse
TTITLE3=Midnight
TTITLE4=Haunted by the Moon
TTITLE5=New Year Departure
TTITLE6=Liverpool
TTITLE7=Unpredictable, Illogical
TTITLE8=No Further Notice
TTITLE9=Annies Vision
TTITLE10=Ace of Hearts
TTITLE11=Going South
TTITLE12=Diner
EXTD=
EXTT0=
EXTT1=
EXTT2=
EXTT3=
EXTT4=
EXTT5=
EXTT6=
EXTT7=
EXTT8=
EXTT9=
EXTT10=
EXTT11=
EXTT12=
PLAYORDER=
